<svg id="visual" viewBox="0 0 900 600" width="900" height="600" xmlns="http://www.w3.org/2000/svg" xmlns:xlink="http://www.w3.org/1999/xlink" version="1.1"><path d="M0 341L21.5 328.8C43 316.7 86 292.3 128.8 297.3C171.7 302.3 214.3 336.7 257.2 342.5C300 348.3 343 325.7 385.8 325.7C428.7 325.7 471.3 348.3 514.2 346.3C557 344.3 600 317.7 642.8 303.2C685.7 288.7 728.3 286.3 771.2 283.2C814 280 857 276 878.5 274L900 272L900 601L878.5 601C857 601 814 601 771.2 601C728.3 601 685.7 601 642.8 601C600 601 557 601 514.2 601C471.3 601 428.7 601 385.8 601C343 601 300 601 257.2 601C214.3 601 171.7 601 128.8 601C86 601 43 601 21.5 601L0 601Z" fill="#796fda"></path><path d="M0 396L21.5 389.8C43 383.7 86 371.3 128.8 363.8C171.7 356.3 214.3 353.7 257.2 352.7C300 351.7 343 352.3 385.8 365.5C428.7 378.7 471.3 404.3 514.2 407.5C557 410.7 600 391.3 642.8 375C685.7 358.7 728.3 345.3 771.2 338.7C814 332 857 332 878.5 332L900 332L900 601L878.5 601C857 601 814 601 771.2 601C728.3 601 685.7 601 642.8 601C600 601 557 601 514.2 601C471.3 601 428.7 601 385.8 601C343 601 300 601 257.2 601C214.3 601 171.7 601 128.8 601C86 601 43 601 21.5 601L0 601Z" fill="#6059c1"></path><path d="M0 434L21.5 425.3C43 416.7 86 399.3 128.8 398.2C171.7 397 214.3 412 257.2 412.7C300 413.3 343 399.7 385.8 398.3C428.7 397 471.3 408 514.2 412C557 416 600 413 642.8 417.8C685.7 422.7 728.3 435.3 771.2 434.3C814 433.3 857 418.7 878.5 411.3L900 404L900 601L878.5 601C857 601 814 601 771.2 601C728.3 601 685.7 601 642.8 601C600 601 557 601 514.2 601C471.3 601 428.7 601 385.8 601C343 601 300 601 257.2 601C214.3 601 171.7 601 128.8 601C86 601 43 601 21.5 601L0 601Z" fill="#4744a9"></path><path d="M0 453L21.5 462.8C43 472.7 86 492.3 128.8 494.3C171.7 496.3 214.3 480.7 257.2 472.5C300 464.3 343 463.7 385.8 459C428.7 454.3 471.3 445.7 514.2 454C557 462.3 600 487.7 642.8 488.7C685.7 489.7 728.3 466.3 771.2 459.7C814 453 857 463 878.5 468L900 473L900 601L878.5 601C857 601 814 601 771.2 601C728.3 601 685.7 601 642.8 601C600 601 557 601 514.2 601C471.3 601 428.7 601 385.8 601C343 601 300 601 257.2 601C214.3 601 171.7 601 128.8 601C86 601 43 601 21.5 601L0 601Z" fill="#2c3092"></path><path d="M0 546L21.5 543.8C43 541.7 86 537.3 128.8 530.3C171.7 523.3 214.3 513.7 257.2 508.2C300 502.7 343 501.3 385.8 500.2C428.7 499 471.3 498 514.2 501.3C557 504.7 600 512.3 642.8 517.8C685.7 523.3 728.3 526.7 771.2 522.8C814 519 857 508 878.5 502.5L900 497L900 601L878.5 601C857 601 814 601 771.2 601C728.3 601 685.7 601 642.8 601C600 601 557 601 514.2 601C471.3 601 428.7 601 385.8 601C343 601 300 601 257.2 601C214.3 601 171.7 601 128.8 601C86 601 43 601 21.5 601L0 601Z" fill="#041d7b"></path></svg>